<svg width="120" height="120" viewBox="0 0 120 120" fill="none" xmlns="http://www.w3.org/2000/svg">
<path d="M59.9995 3.99308L61.0955 0.153081C60.3791 -0.0510271 59.6199 -0.0510271 58.9035 0.153081L59.9995 3.99308ZM3.99954 19.9931L2.90354 16.1531C1.99559 16.4119 1.20845 16.9835 0.68138 17.7668C0.15431 18.5501 -0.0787143 19.4945 0.0235362 20.4331L3.99954 19.9931ZM11.9995 91.9931L8.02354 92.4331C8.09701 93.0965 8.33534 93.731 8.71681 94.2788C9.09827 94.8265 9.61075 95.2701 10.2075 95.5691L11.9995 91.9931ZM59.9995 115.993L58.2075 119.569C58.7638 119.848 59.3774 119.993 59.9995 119.993C60.6217 119.993 61.2353 119.848 61.7915 119.569L59.9995 115.993ZM108 91.9931L109.792 95.5691C110.388 95.2701 110.901 94.8265 111.282 94.2788C111.664 93.731 111.902 93.0965 111.976 92.4331L108 91.9931ZM116 19.9931L119.976 20.4331C120.08 19.4932 119.848 18.5469 119.32 17.7619C118.793 16.9769 118.005 16.4041 117.096 16.1451L116 19.9931ZM59.9995 23.9931L63.6635 22.3931L59.9995 14.0171L56.3355 22.3931L59.9995 23.9931ZM58.9035 0.153081L2.90354 16.1531L5.09554 23.8331L61.0955 7.83308L58.9035 0.153081ZM0.0235362 20.4251L8.02354 92.4251L15.9755 91.5451L7.97554 19.5451L0.0235362 20.4251ZM10.2075 95.5691L58.2075 119.569L61.7915 112.409L13.7915 88.4091L10.2075 95.5691ZM61.7915 119.569L109.792 95.5691L106.208 88.4091L58.2075 112.409L61.7915 119.569ZM111.976 92.4251L119.976 20.4251L112.024 19.5451L104.024 91.5451L111.976 92.4251ZM117.096 16.1371L61.0955 0.137081L58.9035 7.83308L114.904 23.8331L117.096 16.1371ZM35.6635 89.5931L63.6635 25.5931L56.3355 22.3931L28.3355 86.3931L35.6635 89.5931ZM56.3355 25.5931L84.3355 89.5931L91.6635 86.3931L63.6635 22.3931L56.3355 25.5931ZM39.9995 71.9931H79.9995V63.9931H39.9995V71.9931Z" fill="white"/>
</svg>
