<svg width="1440" height="4351" viewBox="0 0 1440 4351" fill="none" xmlns="http://www.w3.org/2000/svg">
<g filter="url(#filter0_f_3_143)">
<path d="M1424.36 4143.11C1415.73 4143.11 1408.73 4166.28 1408.73 4194.85C1408.73 4223.43 1415.73 4246.59 1424.36 4246.59C1433 4246.59 1440 4223.43 1440 4194.85C1440 4166.28 1433 4143.11 1424.36 4143.11Z" fill="#0339A6" fill-opacity="0.25"/>
<path d="M1283.48 4143.11C1274.85 4143.11 1267.85 4166.28 1267.85 4194.85C1267.85 4223.43 1274.85 4246.59 1283.48 4246.59C1292.12 4246.59 1299.12 4223.43 1299.12 4194.85C1299.12 4166.28 1292.12 4143.11 1283.48 4143.11Z" fill="#0339A6" fill-opacity="0.25"/>
<path d="M1142.6 4143.11C1133.97 4143.11 1126.97 4166.28 1126.97 4194.85C1126.97 4223.43 1133.97 4246.59 1142.6 4246.59C1151.24 4246.59 1158.24 4223.43 1158.24 4194.85C1158.24 4166.28 1151.24 4143.11 1142.6 4143.11Z" fill="#0339A6" fill-opacity="0.25"/>
<path d="M1001.72 4143.11C993.087 4143.11 986.086 4166.28 986.086 4194.85C986.086 4223.43 993.087 4246.59 1001.72 4246.59C1010.36 4246.59 1017.36 4223.43 1017.36 4194.85C1017.36 4166.28 1010.36 4143.11 1001.72 4143.11Z" fill="#0339A6" fill-opacity="0.25"/>
<path d="M845.206 4194.85C845.206 4166.3 852.213 4143.11 860.843 4143.11C869.473 4143.11 876.48 4166.3 876.48 4194.85C876.48 4223.41 869.473 4246.59 860.843 4246.59C852.213 4246.59 845.206 4223.41 845.206 4194.85Z" fill="#0339A6" fill-opacity="0.25"/>
<path d="M720.037 4143.11C711.401 4143.11 704.4 4166.28 704.4 4194.85C704.4 4223.43 711.401 4246.59 720.037 4246.59C728.673 4246.59 735.674 4223.43 735.674 4194.85C735.674 4166.28 728.673 4143.11 720.037 4143.11Z" fill="#0339A6" fill-opacity="0.25"/>
<path d="M579.157 4143.11C570.521 4143.11 563.52 4166.28 563.52 4194.85C563.52 4223.43 570.521 4246.59 579.157 4246.59C587.793 4246.59 594.794 4223.43 594.794 4194.85C594.794 4166.28 587.793 4143.11 579.157 4143.11Z" fill="#0339A6" fill-opacity="0.25"/>
<path d="M438.277 4143.11C429.641 4143.11 422.64 4166.28 422.64 4194.85C422.64 4223.43 429.641 4246.59 438.277 4246.59C446.913 4246.59 453.914 4223.43 453.914 4194.85C453.914 4166.28 446.913 4143.11 438.277 4143.11Z" fill="#0339A6" fill-opacity="0.25"/>
<path d="M297.397 4143.11C288.761 4143.11 281.76 4166.28 281.76 4194.85C281.76 4223.43 288.761 4246.59 297.397 4246.59C306.033 4246.59 313.034 4223.43 313.034 4194.85C313.034 4166.28 306.033 4143.11 297.397 4143.11Z" fill="#0339A6" fill-opacity="0.25"/>
<path d="M156.517 4143.11C147.881 4143.11 140.88 4166.28 140.88 4194.85C140.88 4223.43 147.881 4246.59 156.517 4246.59C165.153 4246.59 172.154 4223.43 172.154 4194.85C172.154 4166.28 165.153 4143.11 156.517 4143.11Z" fill="#0339A6" fill-opacity="0.25"/>
<path d="M15.6373 4143.11C7.00122 4143.11 -8.58307e-05 4166.28 -8.58307e-05 4194.85C-8.58307e-05 4223.43 7.00122 4246.59 15.6373 4246.59C24.2733 4246.59 31.2742 4223.43 31.2742 4194.85C31.2742 4166.28 24.2733 4143.11 15.6373 4143.11Z" fill="#0339A6" fill-opacity="0.25"/>
<path d="M1424.36 3728.95C1415.73 3728.95 1408.73 3752.11 1408.73 3780.69C1408.73 3809.26 1415.73 3832.43 1424.36 3832.43C1433 3832.43 1440 3809.26 1440 3780.69C1440 3752.11 1433 3728.95 1424.36 3728.95Z" fill="#0339A6" fill-opacity="0.25"/>
<path d="M1283.48 3728.95C1274.85 3728.95 1267.85 3752.11 1267.85 3780.69C1267.85 3809.26 1274.85 3832.43 1283.48 3832.43C1292.12 3832.43 1299.12 3809.26 1299.12 3780.69C1299.12 3752.11 1292.12 3728.95 1283.48 3728.95Z" fill="#0339A6" fill-opacity="0.25"/>
<path d="M1142.6 3728.95C1133.97 3728.95 1126.97 3752.11 1126.97 3780.69C1126.97 3809.26 1133.97 3832.43 1142.6 3832.43C1151.24 3832.43 1158.24 3809.26 1158.24 3780.69C1158.24 3752.11 1151.24 3728.95 1142.6 3728.95Z" fill="#0339A6" fill-opacity="0.25"/>
<path d="M1001.72 3728.95C993.087 3728.95 986.086 3752.11 986.086 3780.69C986.086 3809.26 993.087 3832.43 1001.72 3832.43C1010.36 3832.43 1017.36 3809.26 1017.36 3780.69C1017.36 3752.11 1010.36 3728.95 1001.72 3728.95Z" fill="#0339A6" fill-opacity="0.25"/>
<path d="M845.206 3780.69C845.206 3752.13 852.213 3728.95 860.843 3728.95C869.473 3728.95 876.48 3752.13 876.48 3780.69C876.48 3809.24 869.473 3832.43 860.843 3832.43C852.213 3832.43 845.206 3809.24 845.206 3780.69Z" fill="#0339A6" fill-opacity="0.25"/>
<path d="M720.037 3728.95C711.401 3728.95 704.4 3752.11 704.4 3780.69C704.4 3809.26 711.401 3832.43 720.037 3832.43C728.673 3832.43 735.674 3809.26 735.674 3780.69C735.674 3752.11 728.673 3728.95 720.037 3728.95Z" fill="#0339A6" fill-opacity="0.25"/>
<path d="M579.157 3728.95C570.521 3728.95 563.52 3752.11 563.52 3780.69C563.52 3809.26 570.521 3832.43 579.157 3832.43C587.793 3832.43 594.794 3809.26 594.794 3780.69C594.794 3752.11 587.793 3728.95 579.157 3728.95Z" fill="#0339A6" fill-opacity="0.25"/>
<path d="M438.277 3728.95C429.641 3728.95 422.64 3752.11 422.64 3780.69C422.64 3809.26 429.641 3832.43 438.277 3832.43C446.913 3832.43 453.914 3809.26 453.914 3780.69C453.914 3752.11 446.913 3728.95 438.277 3728.95Z" fill="#0339A6" fill-opacity="0.25"/>
<path d="M297.397 3728.95C288.761 3728.95 281.76 3752.11 281.76 3780.69C281.76 3809.26 288.761 3832.43 297.397 3832.43C306.033 3832.43 313.034 3809.26 313.034 3780.69C313.034 3752.11 306.033 3728.95 297.397 3728.95Z" fill="#0339A6" fill-opacity="0.25"/>
<path d="M156.517 3728.95C147.881 3728.95 140.88 3752.11 140.88 3780.69C140.88 3809.26 147.881 3832.43 156.517 3832.43C165.153 3832.43 172.154 3809.26 172.154 3780.69C172.154 3752.11 165.153 3728.95 156.517 3728.95Z" fill="#0339A6" fill-opacity="0.25"/>
<path d="M15.6373 3728.95C7.00122 3728.95 -8.58307e-05 3752.11 -8.58307e-05 3780.69C-8.58307e-05 3809.26 7.00122 3832.43 15.6373 3832.43C24.2733 3832.43 31.2742 3809.26 31.2742 3780.69C31.2742 3752.11 24.2733 3728.95 15.6373 3728.95Z" fill="#0339A6" fill-opacity="0.25"/>
<path d="M1408.73 3366.28C1408.73 3337.72 1415.73 3314.54 1424.36 3314.54C1432.99 3314.54 1440 3337.72 1440 3366.28C1440 3394.83 1432.99 3418.02 1424.36 3418.02C1415.73 3418.02 1408.73 3394.83 1408.73 3366.28Z" fill="#0339A6" fill-opacity="0.25"/>
<path d="M1267.85 3366.28C1267.85 3337.72 1274.85 3314.54 1283.48 3314.54C1292.11 3314.54 1299.12 3337.72 1299.12 3366.28C1299.12 3394.83 1292.11 3418.02 1283.48 3418.02C1274.85 3418.02 1267.85 3394.83 1267.85 3366.28Z" fill="#0339A6" fill-opacity="0.25"/>
<path d="M1126.97 3366.28C1126.97 3337.72 1133.97 3314.54 1142.6 3314.54C1151.23 3314.54 1158.24 3337.72 1158.24 3366.28C1158.24 3394.83 1151.23 3418.02 1142.6 3418.02C1133.97 3418.02 1126.97 3394.83 1126.97 3366.28Z" fill="#0339A6" fill-opacity="0.25"/>
<path d="M986.086 3366.28C986.086 3337.72 993.093 3314.54 1001.72 3314.54C1010.35 3314.54 1017.36 3337.72 1017.36 3366.28C1017.36 3394.83 1010.35 3418.02 1001.72 3418.02C993.093 3418.02 986.086 3394.83 986.086 3366.28Z" fill="#0339A6" fill-opacity="0.25"/>
<path d="M845.206 3366.28C845.206 3337.72 852.213 3314.54 860.843 3314.54C869.473 3314.54 876.48 3337.72 876.48 3366.28C876.48 3394.83 869.473 3418.02 860.843 3418.02C852.213 3418.02 845.206 3394.83 845.206 3366.28Z" fill="#0339A6" fill-opacity="0.25"/>
<path d="M704.326 3366.28C704.326 3337.72 711.333 3314.54 719.963 3314.54C728.593 3314.54 735.6 3337.72 735.6 3366.28C735.6 3394.83 728.593 3418.02 719.963 3418.02C711.407 3418.02 704.326 3394.83 704.326 3366.28Z" fill="#0339A6" fill-opacity="0.25"/>
<path d="M563.52 3366.28C563.52 3337.72 570.527 3314.54 579.157 3314.54C587.787 3314.54 594.794 3337.72 594.794 3366.28C594.794 3394.83 587.787 3418.02 579.157 3418.02C570.527 3418.02 563.52 3394.83 563.52 3366.28Z" fill="#0339A6" fill-opacity="0.25"/>
<path d="M422.64 3366.28C422.64 3337.72 429.647 3314.54 438.277 3314.54C446.907 3314.54 453.914 3337.72 453.914 3366.28C453.914 3394.83 446.907 3418.02 438.277 3418.02C429.647 3418.02 422.64 3394.83 422.64 3366.28Z" fill="#0339A6" fill-opacity="0.25"/>
<path d="M281.76 3366.28C281.76 3337.72 288.767 3314.54 297.397 3314.54C306.027 3314.54 313.034 3337.72 313.034 3366.28C313.034 3394.83 306.027 3418.02 297.397 3418.02C288.767 3418.02 281.76 3394.83 281.76 3366.28Z" fill="#0339A6" fill-opacity="0.25"/>
<path d="M140.88 3366.28C140.88 3337.72 147.887 3314.54 156.517 3314.54C165.147 3314.54 172.154 3337.72 172.154 3366.28C172.154 3394.83 165.147 3418.02 156.517 3418.02C147.887 3418.02 140.88 3394.83 140.88 3366.28Z" fill="#0339A6" fill-opacity="0.25"/>
<path d="M-8.60302e-05 3366.28C-8.60302e-05 3337.72 7.00745 3314.54 15.6373 3314.54C24.2671 3314.54 31.2742 3337.72 31.2742 3366.28C31.2742 3394.83 24.2671 3418.02 15.6373 3418.02C7.00745 3418.02 -8.60302e-05 3394.83 -8.60302e-05 3366.28Z" fill="#0339A6" fill-opacity="0.25"/>
<path d="M1408.73 2951.87C1408.73 2923.31 1415.73 2900.13 1424.36 2900.13C1432.99 2900.13 1440 2923.31 1440 2951.87C1440 2980.42 1432.99 3003.61 1424.36 3003.61C1415.73 3003.85 1408.73 2980.67 1408.73 2951.87Z" fill="#0339A6" fill-opacity="0.25"/>
<path d="M1267.85 2951.87C1267.85 2923.31 1274.85 2900.13 1283.48 2900.13C1292.11 2900.13 1299.12 2923.31 1299.12 2951.87C1299.12 2980.42 1292.11 3003.61 1283.48 3003.61C1274.85 3003.85 1267.85 2980.67 1267.85 2951.87Z" fill="#0339A6" fill-opacity="0.25"/>
<path d="M1126.97 2951.87C1126.97 2923.31 1133.97 2900.13 1142.6 2900.13C1151.23 2900.13 1158.24 2923.31 1158.24 2951.87C1158.24 2980.42 1151.23 3003.61 1142.6 3003.61C1133.97 3003.85 1126.97 2980.67 1126.97 2951.87Z" fill="#0339A6" fill-opacity="0.25"/>
<path d="M986.086 2951.87C986.086 2923.31 993.093 2900.13 1001.72 2900.13C1010.35 2900.13 1017.36 2923.31 1017.36 2951.87C1017.36 2980.42 1010.35 3003.61 1001.72 3003.61C993.093 3003.85 986.086 2980.67 986.086 2951.87Z" fill="#0339A6" fill-opacity="0.25"/>
<path d="M845.206 2951.87C845.206 2923.31 852.213 2900.13 860.843 2900.13C869.473 2900.13 876.48 2923.31 876.48 2951.87C876.48 2980.42 869.473 3003.61 860.843 3003.61C852.213 3003.85 845.206 2980.67 845.206 2951.87Z" fill="#0339A6" fill-opacity="0.25"/>
<path d="M704.326 2951.87C704.326 2923.31 711.333 2900.13 719.963 2900.13C728.593 2900.13 735.6 2923.31 735.6 2951.87C735.6 2980.42 728.593 3003.61 719.963 3003.61C711.407 3003.85 704.326 2980.67 704.326 2951.87Z" fill="#0339A6" fill-opacity="0.25"/>
<path d="M563.52 2951.87C563.52 2923.31 570.527 2900.13 579.157 2900.13C587.787 2900.13 594.794 2923.31 594.794 2951.87C594.794 2980.42 587.787 3003.61 579.157 3003.61C570.527 3003.85 563.52 2980.67 563.52 2951.87Z" fill="#0339A6" fill-opacity="0.25"/>
<path d="M422.64 2951.87C422.64 2923.32 429.647 2900.13 438.277 2900.13C446.907 2900.13 453.914 2923.32 453.914 2951.87C453.914 2980.42 446.907 3003.61 438.277 3003.61C429.647 3003.61 422.64 2980.67 422.64 2951.87Z" fill="#0339A6" fill-opacity="0.25"/>
<path d="M281.76 2951.87C281.76 2923.31 288.767 2900.13 297.397 2900.13C306.027 2900.13 313.034 2923.31 313.034 2951.87C313.034 2980.42 306.027 3003.61 297.397 3003.61C288.767 3003.85 281.76 2980.67 281.76 2951.87Z" fill="#0339A6" fill-opacity="0.25"/>
<path d="M140.88 2951.87C140.88 2923.31 147.887 2900.13 156.517 2900.13C165.147 2900.13 172.154 2923.31 172.154 2951.87C172.154 2980.42 165.147 3003.61 156.517 3003.61C147.887 3003.85 140.88 2980.67 140.88 2951.87Z" fill="#0339A6" fill-opacity="0.25"/>
<path d="M-8.60302e-05 2951.87C-8.60302e-05 2923.31 7.00745 2900.13 15.6373 2900.13C24.2671 2900.13 31.2742 2923.31 31.2742 2951.87C31.2742 2980.42 24.2671 3003.61 15.6373 3003.61C7.00745 3003.85 -8.60302e-05 2980.67 -8.60302e-05 2951.87Z" fill="#0339A6" fill-opacity="0.25"/>
<path d="M1424.36 2485.96C1415.73 2485.96 1408.73 2509.13 1408.73 2537.7C1408.73 2566.28 1415.73 2589.44 1424.36 2589.44C1433 2589.44 1440 2566.28 1440 2537.7C1440 2509.13 1433 2485.96 1424.36 2485.96Z" fill="#0339A6" fill-opacity="0.25"/>
<path d="M1283.48 2485.96C1274.85 2485.96 1267.85 2509.13 1267.85 2537.7C1267.85 2566.28 1274.85 2589.44 1283.48 2589.44C1292.12 2589.44 1299.12 2566.28 1299.12 2537.7C1299.12 2509.13 1292.12 2485.96 1283.48 2485.96Z" fill="#0339A6" fill-opacity="0.25"/>
<path d="M1142.6 2485.96C1133.97 2485.96 1126.97 2509.13 1126.97 2537.7C1126.97 2566.28 1133.97 2589.44 1142.6 2589.44C1151.24 2589.44 1158.24 2566.28 1158.24 2537.7C1158.24 2509.13 1151.24 2485.96 1142.6 2485.96Z" fill="#0339A6" fill-opacity="0.25"/>
<path d="M1001.72 2485.96C993.087 2485.96 986.086 2509.13 986.086 2537.7C986.086 2566.28 993.087 2589.44 1001.72 2589.44C1010.36 2589.44 1017.36 2566.28 1017.36 2537.7C1017.36 2509.13 1010.36 2485.96 1001.72 2485.96Z" fill="#0339A6" fill-opacity="0.25"/>
<path d="M845.206 2537.7C845.206 2509.15 852.213 2485.96 860.843 2485.96C869.473 2485.96 876.48 2509.15 876.48 2537.7C876.48 2566.26 869.473 2589.44 860.843 2589.44C852.213 2589.44 845.206 2566.26 845.206 2537.7Z" fill="#0339A6" fill-opacity="0.25"/>
<path d="M720.037 2485.96C711.401 2485.96 704.4 2509.13 704.4 2537.7C704.4 2566.28 711.401 2589.44 720.037 2589.44C728.673 2589.44 735.674 2566.28 735.674 2537.7C735.674 2509.13 728.673 2485.96 720.037 2485.96Z" fill="#0339A6" fill-opacity="0.25"/>
<path d="M579.157 2485.96C570.521 2485.96 563.52 2509.13 563.52 2537.7C563.52 2566.28 570.521 2589.44 579.157 2589.44C587.793 2589.44 594.794 2566.28 594.794 2537.7C594.794 2509.13 587.793 2485.96 579.157 2485.96Z" fill="#0339A6" fill-opacity="0.25"/>
<path d="M438.277 2485.96C429.641 2485.96 422.64 2509.13 422.64 2537.7C422.64 2566.28 429.641 2589.44 438.277 2589.44C446.913 2589.44 453.914 2566.28 453.914 2537.7C453.914 2509.13 446.913 2485.96 438.277 2485.96Z" fill="#0339A6" fill-opacity="0.25"/>
<path d="M297.397 2485.96C288.761 2485.96 281.76 2509.13 281.76 2537.7C281.76 2566.28 288.761 2589.44 297.397 2589.44C306.033 2589.44 313.034 2566.28 313.034 2537.7C313.034 2509.13 306.033 2485.96 297.397 2485.96Z" fill="#0339A6" fill-opacity="0.25"/>
<path d="M156.517 2485.96C147.881 2485.96 140.88 2509.13 140.88 2537.7C140.88 2566.28 147.881 2589.44 156.517 2589.44C165.153 2589.44 172.154 2566.28 172.154 2537.7C172.154 2509.13 165.153 2485.96 156.517 2485.96Z" fill="#0339A6" fill-opacity="0.25"/>
<path d="M15.6373 2485.96C7.00122 2485.96 -8.58307e-05 2509.13 -8.58307e-05 2537.7C-8.58307e-05 2566.28 7.00122 2589.44 15.6373 2589.44C24.2733 2589.44 31.2742 2566.28 31.2742 2537.7C31.2742 2509.13 24.2733 2485.96 15.6373 2485.96Z" fill="#0339A6" fill-opacity="0.25"/>
<path d="M1424.36 2071.56C1415.73 2071.56 1408.73 2094.72 1408.73 2123.3C1408.73 2151.87 1415.73 2175.04 1424.36 2175.04C1433 2175.04 1440 2151.87 1440 2123.3C1440 2094.72 1433 2071.56 1424.36 2071.56Z" fill="#0339A6" fill-opacity="0.25"/>
<path d="M1283.48 2071.56C1274.85 2071.56 1267.85 2094.72 1267.85 2123.3C1267.85 2151.87 1274.85 2175.04 1283.48 2175.04C1292.12 2175.04 1299.12 2151.87 1299.12 2123.3C1299.12 2094.72 1292.12 2071.56 1283.48 2071.56Z" fill="#0339A6" fill-opacity="0.25"/>
<path d="M1142.6 2071.56C1133.97 2071.56 1126.97 2094.72 1126.97 2123.3C1126.97 2151.87 1133.97 2175.04 1142.6 2175.04C1151.24 2175.04 1158.24 2151.87 1158.24 2123.3C1158.24 2094.72 1151.24 2071.56 1142.6 2071.56Z" fill="#0339A6" fill-opacity="0.25"/>
<path d="M1001.72 2071.56C993.087 2071.56 986.086 2094.72 986.086 2123.3C986.086 2151.87 993.087 2175.04 1001.72 2175.04C1010.36 2175.04 1017.36 2151.87 1017.36 2123.3C1017.36 2094.72 1010.36 2071.56 1001.72 2071.56Z" fill="#0339A6" fill-opacity="0.25"/>
<path d="M845.206 2123.3C845.206 2094.74 852.213 2071.56 860.843 2071.56C869.473 2071.56 876.48 2094.74 876.48 2123.3C876.48 2151.85 869.473 2175.04 860.843 2175.04C852.213 2175.04 845.206 2151.85 845.206 2123.3Z" fill="#0339A6" fill-opacity="0.25"/>
<path d="M720.037 2071.56C711.401 2071.56 704.4 2094.72 704.4 2123.3C704.4 2151.87 711.401 2175.04 720.037 2175.04C728.673 2175.04 735.674 2151.87 735.674 2123.3C735.674 2094.72 728.673 2071.56 720.037 2071.56Z" fill="#0339A6" fill-opacity="0.25"/>
<path d="M579.157 2071.56C570.521 2071.56 563.52 2094.72 563.52 2123.3C563.52 2151.87 570.521 2175.04 579.157 2175.04C587.793 2175.04 594.794 2151.87 594.794 2123.3C594.794 2094.72 587.793 2071.56 579.157 2071.56Z" fill="#0339A6" fill-opacity="0.25"/>
<path d="M438.277 2071.56C429.641 2071.56 422.64 2094.72 422.64 2123.3C422.64 2151.87 429.641 2175.04 438.277 2175.04C446.913 2175.04 453.914 2151.87 453.914 2123.3C453.914 2094.72 446.913 2071.56 438.277 2071.56Z" fill="#0339A6" fill-opacity="0.25"/>
<path d="M297.397 2071.56C288.761 2071.56 281.76 2094.72 281.76 2123.3C281.76 2151.87 288.761 2175.04 297.397 2175.04C306.033 2175.04 313.034 2151.87 313.034 2123.3C313.034 2094.72 306.033 2071.56 297.397 2071.56Z" fill="#0339A6" fill-opacity="0.25"/>
<path d="M156.517 2071.56C147.881 2071.56 140.88 2094.72 140.88 2123.3C140.88 2151.87 147.881 2175.04 156.517 2175.04C165.153 2175.04 172.154 2151.87 172.154 2123.3C172.154 2094.72 165.153 2071.56 156.517 2071.56Z" fill="#0339A6" fill-opacity="0.25"/>
<path d="M15.6373 2071.56C7.00122 2071.56 -8.58307e-05 2094.72 -8.58307e-05 2123.3C-8.58307e-05 2151.87 7.00122 2175.04 15.6373 2175.04C24.2733 2175.04 31.2742 2151.87 31.2742 2123.3C31.2742 2094.72 24.2733 2071.56 15.6373 2071.56Z" fill="#0339A6" fill-opacity="0.25"/>
<path d="M1408.73 1708.89C1408.73 1680.33 1415.73 1657.15 1424.36 1657.15C1432.99 1657.15 1440 1680.33 1440 1708.89C1440 1737.44 1432.99 1760.63 1424.36 1760.63C1415.73 1760.87 1408.73 1737.69 1408.73 1708.89Z" fill="#0339A6" fill-opacity="0.25"/>
<path d="M1267.85 1708.89C1267.85 1680.33 1274.85 1657.15 1283.48 1657.15C1292.11 1657.15 1299.12 1680.33 1299.12 1708.89C1299.12 1737.44 1292.11 1760.63 1283.48 1760.63C1274.85 1760.87 1267.85 1737.69 1267.85 1708.89Z" fill="#0339A6" fill-opacity="0.25"/>
<path d="M1126.97 1708.89C1126.97 1680.33 1133.97 1657.15 1142.6 1657.15C1151.23 1657.15 1158.24 1680.33 1158.24 1708.89C1158.24 1737.44 1151.23 1760.63 1142.6 1760.63C1133.97 1760.87 1126.97 1737.69 1126.97 1708.89Z" fill="#0339A6" fill-opacity="0.25"/>
<path d="M986.086 1708.89C986.086 1680.33 993.093 1657.15 1001.72 1657.15C1010.35 1657.15 1017.36 1680.33 1017.36 1708.89C1017.36 1737.44 1010.35 1760.63 1001.72 1760.63C993.093 1760.87 986.086 1737.69 986.086 1708.89Z" fill="#0339A6" fill-opacity="0.25"/>
<path d="M845.206 1708.89C845.206 1680.33 852.213 1657.15 860.843 1657.15C869.473 1657.15 876.48 1680.33 876.48 1708.89C876.48 1737.44 869.473 1760.63 860.843 1760.63C852.213 1760.87 845.206 1737.69 845.206 1708.89Z" fill="#0339A6" fill-opacity="0.25"/>
<path d="M704.326 1708.89C704.326 1680.33 711.333 1657.15 719.963 1657.15C728.593 1657.15 735.6 1680.33 735.6 1708.89C735.6 1737.44 728.593 1760.63 719.963 1760.63C711.407 1760.87 704.326 1737.69 704.326 1708.89Z" fill="#0339A6" fill-opacity="0.25"/>
<path d="M563.52 1708.89C563.52 1680.33 570.527 1657.15 579.157 1657.15C587.787 1657.15 594.794 1680.33 594.794 1708.89C594.794 1737.44 587.787 1760.63 579.157 1760.63C570.527 1760.87 563.52 1737.69 563.52 1708.89Z" fill="#0339A6" fill-opacity="0.25"/>
<path d="M422.64 1708.89C422.64 1680.33 429.647 1657.15 438.277 1657.15C446.907 1657.15 453.914 1680.33 453.914 1708.89C453.914 1737.44 446.907 1760.63 438.277 1760.63C429.647 1760.63 422.64 1737.69 422.64 1708.89Z" fill="#0339A6" fill-opacity="0.25"/>
<path d="M281.76 1708.89C281.76 1680.33 288.767 1657.15 297.397 1657.15C306.027 1657.15 313.034 1680.33 313.034 1708.89C313.034 1737.44 306.027 1760.63 297.397 1760.63C288.767 1760.87 281.76 1737.69 281.76 1708.89Z" fill="#0339A6" fill-opacity="0.25"/>
<path d="M140.88 1708.89C140.88 1680.33 147.887 1657.15 156.517 1657.15C165.147 1657.15 172.154 1680.33 172.154 1708.89C172.154 1737.44 165.147 1760.63 156.517 1760.63C147.887 1760.87 140.88 1737.69 140.88 1708.89Z" fill="#0339A6" fill-opacity="0.25"/>
<path d="M-8.60302e-05 1708.89C-8.60302e-05 1680.33 7.00745 1657.15 15.6373 1657.15C24.2671 1657.15 31.2742 1680.33 31.2742 1708.89C31.2742 1737.44 24.2671 1760.63 15.6373 1760.63C7.00745 1760.87 -8.60302e-05 1737.69 -8.60302e-05 1708.89Z" fill="#0339A6" fill-opacity="0.25"/>
<path d="M1408.73 1294.72C1408.73 1266.17 1415.73 1242.98 1424.36 1242.98C1432.99 1242.98 1440 1266.17 1440 1294.72C1440 1323.28 1432.99 1346.46 1424.36 1346.46C1415.73 1346.46 1408.73 1323.28 1408.73 1294.72Z" fill="#0339A6" fill-opacity="0.25"/>
<path d="M1267.85 1294.72C1267.85 1266.17 1274.85 1242.98 1283.48 1242.98C1292.11 1242.98 1299.12 1266.17 1299.12 1294.72C1299.12 1323.28 1292.11 1346.46 1283.48 1346.46C1274.85 1346.46 1267.85 1323.28 1267.85 1294.72Z" fill="#0339A6" fill-opacity="0.25"/>
<path d="M1126.97 1294.72C1126.97 1266.17 1133.97 1242.98 1142.6 1242.98C1151.23 1242.98 1158.24 1266.17 1158.24 1294.72C1158.24 1323.28 1151.23 1346.46 1142.6 1346.46C1133.97 1346.46 1126.97 1323.28 1126.97 1294.72Z" fill="#0339A6" fill-opacity="0.25"/>
<path d="M986.086 1294.72C986.086 1266.17 993.093 1242.98 1001.72 1242.98C1010.35 1242.98 1017.36 1266.17 1017.36 1294.72C1017.36 1323.28 1010.35 1346.46 1001.72 1346.46C993.093 1346.46 986.086 1323.28 986.086 1294.72Z" fill="#0339A6" fill-opacity="0.25"/>
<path d="M845.206 1294.72C845.206 1266.17 852.213 1242.98 860.843 1242.98C869.473 1242.98 876.48 1266.17 876.48 1294.72C876.48 1323.28 869.473 1346.46 860.843 1346.46C852.213 1346.46 845.206 1323.28 845.206 1294.72Z" fill="#0339A6" fill-opacity="0.25"/>
<path d="M704.326 1294.72C704.326 1266.17 711.333 1242.98 719.963 1242.98C728.593 1242.98 735.6 1266.17 735.6 1294.72C735.6 1323.28 728.593 1346.46 719.963 1346.46C711.407 1346.46 704.326 1323.28 704.326 1294.72Z" fill="#0339A6" fill-opacity="0.25"/>
<path d="M563.52 1294.72C563.52 1266.17 570.527 1242.98 579.157 1242.98C587.787 1242.98 594.794 1266.17 594.794 1294.72C594.794 1323.28 587.787 1346.46 579.157 1346.46C570.527 1346.46 563.52 1323.28 563.52 1294.72Z" fill="#0339A6" fill-opacity="0.25"/>
<path d="M422.64 1294.72C422.64 1266.17 429.647 1242.98 438.277 1242.98C446.907 1242.98 453.914 1266.17 453.914 1294.72C453.914 1323.28 446.907 1346.46 438.277 1346.46C429.647 1346.46 422.64 1323.28 422.64 1294.72Z" fill="#0339A6" fill-opacity="0.25"/>
<path d="M281.76 1294.72C281.76 1266.17 288.767 1242.98 297.397 1242.98C306.027 1242.98 313.034 1266.17 313.034 1294.72C313.034 1323.28 306.027 1346.46 297.397 1346.46C288.767 1346.46 281.76 1323.28 281.76 1294.72Z" fill="#0339A6" fill-opacity="0.25"/>
<path d="M140.88 1294.72C140.88 1266.17 147.887 1242.98 156.517 1242.98C165.147 1242.98 172.154 1266.17 172.154 1294.72C172.154 1323.28 165.147 1346.46 156.517 1346.46C147.887 1346.46 140.88 1323.28 140.88 1294.72Z" fill="#0339A6" fill-opacity="0.25"/>
<path d="M-8.60302e-05 1294.72C-8.60302e-05 1266.17 7.00745 1242.98 15.6373 1242.98C24.2671 1242.98 31.2742 1266.17 31.2742 1294.72C31.2742 1323.28 24.2671 1346.46 15.6373 1346.46C7.00745 1346.46 -8.60302e-05 1323.28 -8.60302e-05 1294.72Z" fill="#0339A6" fill-opacity="0.25"/>
<path d="M1424.36 828.573C1415.73 828.573 1408.73 851.738 1408.73 880.313C1408.73 908.888 1415.73 932.053 1424.36 932.053C1433 932.053 1440 908.888 1440 880.313C1440 851.738 1433 828.573 1424.36 828.573Z" fill="#0339A6" fill-opacity="0.25"/>
<path d="M1283.48 828.573C1274.85 828.573 1267.85 851.738 1267.85 880.313C1267.85 908.888 1274.85 932.053 1283.48 932.053C1292.12 932.053 1299.12 908.888 1299.12 880.313C1299.12 851.738 1292.12 828.573 1283.48 828.573Z" fill="#0339A6" fill-opacity="0.25"/>
<path d="M1142.6 828.573C1133.97 828.573 1126.97 851.738 1126.97 880.313C1126.97 908.888 1133.97 932.053 1142.6 932.053C1151.24 932.053 1158.24 908.888 1158.24 880.313C1158.24 851.738 1151.24 828.573 1142.6 828.573Z" fill="#0339A6" fill-opacity="0.25"/>
<path d="M1001.72 828.573C993.087 828.573 986.086 851.738 986.086 880.313C986.086 908.888 993.087 932.053 1001.72 932.053C1010.36 932.053 1017.36 908.888 1017.36 880.313C1017.36 851.738 1010.36 828.573 1001.72 828.573Z" fill="#0339A6" fill-opacity="0.25"/>
<path d="M845.206 880.313C845.206 851.758 852.213 828.573 860.843 828.573C869.473 828.573 876.48 851.758 876.48 880.313C876.48 908.867 869.473 932.053 860.843 932.053C852.213 932.053 845.206 908.867 845.206 880.313Z" fill="#0339A6" fill-opacity="0.25"/>
<path d="M720.037 828.573C711.401 828.573 704.4 851.738 704.4 880.313C704.4 908.888 711.401 932.053 720.037 932.053C728.673 932.053 735.674 908.888 735.674 880.313C735.674 851.738 728.673 828.573 720.037 828.573Z" fill="#0339A6" fill-opacity="0.25"/>
<path d="M579.157 828.573C570.521 828.573 563.52 851.738 563.52 880.313C563.52 908.888 570.521 932.053 579.157 932.053C587.793 932.053 594.794 908.888 594.794 880.313C594.794 851.738 587.793 828.573 579.157 828.573Z" fill="#0339A6" fill-opacity="0.25"/>
<path d="M438.277 828.573C429.641 828.573 422.64 851.738 422.64 880.313C422.64 908.888 429.641 932.053 438.277 932.053C446.913 932.053 453.914 908.888 453.914 880.313C453.914 851.738 446.913 828.573 438.277 828.573Z" fill="#0339A6" fill-opacity="0.25"/>
<path d="M297.397 828.573C288.761 828.573 281.76 851.738 281.76 880.313C281.76 908.888 288.761 932.053 297.397 932.053C306.033 932.053 313.034 908.888 313.034 880.313C313.034 851.738 306.033 828.573 297.397 828.573Z" fill="#0339A6" fill-opacity="0.25"/>
<path d="M156.517 828.573C147.881 828.573 140.88 851.738 140.88 880.313C140.88 908.888 147.881 932.053 156.517 932.053C165.153 932.053 172.154 908.888 172.154 880.313C172.154 851.738 165.153 828.573 156.517 828.573Z" fill="#0339A6" fill-opacity="0.25"/>
<path d="M15.6373 828.573C7.00122 828.573 -8.58307e-05 851.738 -8.58307e-05 880.313C-8.58307e-05 908.888 7.00122 932.053 15.6373 932.053C24.2733 932.053 31.2742 908.888 31.2742 880.313C31.2742 851.738 24.2733 828.573 15.6373 828.573Z" fill="#0339A6" fill-opacity="0.25"/>
<path d="M1424.36 414.167C1415.73 414.167 1408.73 437.331 1408.73 465.906C1408.73 494.482 1415.73 517.646 1424.36 517.646C1433 517.646 1440 494.482 1440 465.906C1440 437.331 1433 414.167 1424.36 414.167Z" fill="#0339A6" fill-opacity="0.25"/>
<path d="M1283.48 414.166C1274.85 414.166 1267.85 437.331 1267.85 465.906C1267.85 494.481 1274.85 517.646 1283.48 517.646C1292.12 517.646 1299.12 494.481 1299.12 465.906C1299.12 437.331 1292.12 414.166 1283.48 414.166Z" fill="#0339A6" fill-opacity="0.25"/>
<path d="M1142.6 414.166C1133.97 414.166 1126.97 437.331 1126.97 465.906C1126.97 494.481 1133.97 517.646 1142.6 517.646C1151.24 517.646 1158.24 494.481 1158.24 465.906C1158.24 437.331 1151.24 414.166 1142.6 414.166Z" fill="#0339A6" fill-opacity="0.25"/>
<path d="M1001.72 414.166C993.087 414.166 986.086 437.331 986.086 465.906C986.086 494.481 993.087 517.646 1001.72 517.646C1010.36 517.646 1017.36 494.481 1017.36 465.906C1017.36 437.331 1010.36 414.166 1001.72 414.166Z" fill="#0339A6" fill-opacity="0.25"/>
<path d="M845.206 465.905C845.206 437.35 852.213 414.165 860.843 414.165C869.473 414.165 876.48 437.35 876.48 465.905C876.48 494.459 869.473 517.645 860.843 517.645C852.213 517.889 845.206 494.703 845.206 465.905Z" fill="#0339A6" fill-opacity="0.25"/>
<path d="M720.037 414.166C711.401 414.166 704.4 437.331 704.4 465.906C704.4 494.481 711.401 517.646 720.037 517.646C728.673 517.646 735.674 494.481 735.674 465.906C735.674 437.331 728.673 414.166 720.037 414.166Z" fill="#0339A6" fill-opacity="0.25"/>
<path d="M579.157 414.166C570.521 414.166 563.52 437.331 563.52 465.906C563.52 494.481 570.521 517.646 579.157 517.646C587.793 517.646 594.794 494.481 594.794 465.906C594.794 437.331 587.793 414.166 579.157 414.166Z" fill="#0339A6" fill-opacity="0.25"/>
<path d="M438.277 414.166C429.641 414.166 422.64 437.331 422.64 465.906C422.64 494.481 429.641 517.646 438.277 517.646C446.913 517.646 453.914 494.481 453.914 465.906C453.914 437.331 446.913 414.166 438.277 414.166Z" fill="#0339A6" fill-opacity="0.25"/>
<path d="M297.397 414.166C288.761 414.166 281.76 437.331 281.76 465.906C281.76 494.481 288.761 517.646 297.397 517.646C306.033 517.646 313.034 494.481 313.034 465.906C313.034 437.331 306.033 414.166 297.397 414.166Z" fill="#0339A6" fill-opacity="0.25"/>
<path d="M156.517 414.166C147.881 414.166 140.88 437.331 140.88 465.906C140.88 494.481 147.881 517.646 156.517 517.646C165.153 517.646 172.154 494.481 172.154 465.906C172.154 437.331 165.153 414.166 156.517 414.166Z" fill="#0339A6" fill-opacity="0.25"/>
<path d="M15.6373 414.166C7.00122 414.166 -8.58307e-05 437.331 -8.58307e-05 465.906C-8.58307e-05 494.481 7.00122 517.646 15.6373 517.646C24.2733 517.646 31.2742 494.481 31.2742 465.906C31.2742 437.331 24.2733 414.166 15.6373 414.166Z" fill="#0339A6" fill-opacity="0.25"/>
<path d="M1408.73 51.74C1408.73 23.1854 1415.73 7.21687e-05 1424.36 7.21687e-05C1432.99 7.21687e-05 1440 23.1854 1440 51.74C1440 80.2947 1432.99 103.48 1424.36 103.48C1415.73 103.48 1408.73 80.2947 1408.73 51.74Z" fill="#0339A6" fill-opacity="0.25"/>
<path d="M1267.85 51.7401C1267.85 23.1854 1274.85 0.000102686 1283.48 0.000102686C1292.11 0.000102686 1299.12 23.1854 1299.12 51.7401C1299.12 80.2947 1292.11 103.48 1283.48 103.48C1274.85 103.48 1267.85 80.2947 1267.85 51.7401Z" fill="#0339A6" fill-opacity="0.25"/>
<path d="M1126.97 51.7401C1126.97 23.1854 1133.97 0.000102686 1142.6 0.000102686C1151.23 0.000102686 1158.24 23.1854 1158.24 51.7401C1158.24 80.2947 1151.23 103.48 1142.6 103.48C1133.97 103.48 1126.97 80.2947 1126.97 51.7401Z" fill="#0339A6" fill-opacity="0.25"/>
<path d="M986.086 51.7401C986.086 23.1854 993.093 0.000102686 1001.72 0.000102686C1010.35 0.000102686 1017.36 23.1854 1017.36 51.7401C1017.36 80.2947 1010.35 103.48 1001.72 103.48C993.093 103.48 986.086 80.2947 986.086 51.7401Z" fill="#0339A6" fill-opacity="0.25"/>
<path d="M845.206 51.7401C845.206 23.1854 852.213 0.000102686 860.843 0.000102686C869.473 0.000102686 876.48 23.1854 876.48 51.7401C876.48 80.2947 869.473 103.48 860.843 103.48C852.213 103.48 845.206 80.2947 845.206 51.7401Z" fill="#0339A6" fill-opacity="0.25"/>
<path d="M704.326 51.7401C704.326 23.1854 711.333 0.000102686 719.963 0.000102686C728.593 0.000102686 735.6 23.1854 735.6 51.7401C735.6 80.2947 728.593 103.48 719.963 103.48C711.407 103.48 704.326 80.2947 704.326 51.7401Z" fill="#0339A6" fill-opacity="0.25"/>
<path d="M563.52 51.7401C563.52 23.1854 570.527 0.000102686 579.157 0.000102686C587.787 0.000102686 594.794 23.1854 594.794 51.7401C594.794 80.2947 587.787 103.48 579.157 103.48C570.527 103.48 563.52 80.2947 563.52 51.7401Z" fill="#0339A6" fill-opacity="0.25"/>
<path d="M422.64 51.7401C422.64 23.1854 429.647 0.000102686 438.277 0.000102686C446.907 0.000102686 453.914 23.1854 453.914 51.7401C453.914 80.2947 446.907 103.48 438.277 103.48C429.647 103.48 422.64 80.2947 422.64 51.7401Z" fill="#0339A6" fill-opacity="0.25"/>
<path d="M281.76 51.7401C281.76 23.1854 288.767 0.000102686 297.397 0.000102686C306.027 0.000102686 313.034 23.1854 313.034 51.7401C313.034 80.2947 306.027 103.48 297.397 103.48C288.767 103.48 281.76 80.2947 281.76 51.7401Z" fill="#0339A6" fill-opacity="0.25"/>
<path d="M140.88 51.7401C140.88 23.1854 147.887 0.000102686 156.517 0.000102686C165.147 0.000102686 172.154 23.1854 172.154 51.7401C172.154 80.2947 165.147 103.48 156.517 103.48C147.887 103.48 140.88 80.2947 140.88 51.7401Z" fill="#0339A6" fill-opacity="0.25"/>
<path d="M-8.60302e-05 51.7401C-8.60302e-05 23.1854 7.00745 0.000102686 15.6373 0.000102686C24.2671 0.000102686 31.2742 23.1854 31.2742 51.7401C31.2742 80.2947 24.2671 103.48 15.6373 103.48C7.00745 103.48 -8.60302e-05 80.2947 -8.60302e-05 51.7401Z" fill="#0339A6" fill-opacity="0.25"/>
</g>
<defs>
<filter id="filter0_f_3_143" x="-50.0001" y="-49.9999" width="1540" height="4761" filterUnits="userSpaceOnUse" color-interpolation-filters="sRGB">
<feFlood flood-opacity="0" result="BackgroundImageFix"/>
<feBlend mode="normal" in="SourceGraphic" in2="BackgroundImageFix" result="shape"/>
<feGaussianBlur stdDeviation="25" result="effect1_foregroundBlur_3_143"/>
</filter>
</defs>
</svg>
