<svg width="64" height="48" viewBox="0 0 64 48" fill="none" xmlns="http://www.w3.org/2000/svg">
<path d="M7 0H57C60.864 0 64 3.136 64 7V41C64 42.8565 63.2625 44.637 61.9497 45.9497C60.637 47.2625 58.8565 48 57 48H7C5.14348 48 3.36301 47.2625 2.05025 45.9497C0.737498 44.637 0 42.8565 0 41L0 7C0 3.136 3.136 0 7 0ZM6 41.004C6 41.556 6.448 42.004 7 42.004H57C57.2652 42.004 57.5196 41.8986 57.7071 41.7111C57.8946 41.5236 58 41.2692 58 41.004V15.236L33.52 29.588C33.0592 29.8588 32.5345 30.0016 32 30.0016C31.4655 30.0016 30.9408 29.8588 30.48 29.588L6 15.236V41.004ZM58 8.28V7C58 6.73478 57.8946 6.48043 57.7071 6.29289C57.5196 6.10536 57.2652 6 57 6H7C6.73478 6 6.48043 6.10536 6.29289 6.29289C6.10536 6.48043 6 6.73478 6 7V8.28L32 23.52L58 8.28Z" fill="white"/>
</svg>
