<svg width="64" height="64" viewBox="0 0 64 64" fill="none" xmlns="http://www.w3.org/2000/svg">
<path d="M32 37.3333C37.8827 37.3333 42.6667 32.5493 42.6667 26.6667C42.6667 20.784 37.8827 16 32 16C26.1173 16 21.3333 20.784 21.3333 26.6667C21.3333 32.5493 26.1173 37.3333 32 37.3333ZM32 21.3333C34.9413 21.3333 37.3333 23.7253 37.3333 26.6667C37.3333 29.608 34.9413 32 32 32C29.0587 32 26.6667 29.608 26.6667 26.6667C26.6667 23.7253 29.0587 21.3333 32 21.3333Z" fill="white"/>
<path d="M30.4533 58.1706C30.9047 58.4929 31.4454 58.6662 32 58.6662C32.5546 58.6662 33.0954 58.4929 33.5467 58.1706C34.3573 57.5972 53.4107 43.8399 53.3333 26.6666C53.3333 14.9039 43.7627 5.33325 32 5.33325C20.2373 5.33325 10.6667 14.9039 10.6667 26.6532C10.5893 43.8399 29.6427 57.5972 30.4533 58.1706ZM32 10.6666C40.824 10.6666 48 17.8426 48 26.6799C48.056 38.5146 36.2987 49.1413 32 52.6266C27.704 49.1386 15.944 38.5093 16 26.6666C16 17.8426 23.176 10.6666 32 10.6666Z" fill="white"/>
</svg>
