<svg width="120" height="120" viewBox="0 0 120 120" fill="none" xmlns="http://www.w3.org/2000/svg">
<g clip-path="url(#clip0_5_205)">
<path d="M91.875 0H28.125C12.592 0 0 12.592 0 28.125V91.875C0 107.408 12.592 120 28.125 120H91.875C107.408 120 120 107.408 120 91.875V28.125C120 12.592 107.408 0 91.875 0Z" fill="white"/>
<mask id="mask0_5_205" style="mask-type:luminance" maskUnits="userSpaceOnUse" x="17" y="17" width="86" height="86">
<path d="M17.8125 17.8125H102.188V102.188H17.8125V17.8125Z" fill="white"/>
</mask>
<g mask="url(#mask0_5_205)">
<path fill-rule="evenodd" clip-rule="evenodd" d="M95.5317 83.5359C90.9426 83.4084 87.3825 83.8786 84.3989 85.1339C83.5397 85.4789 82.1611 85.4789 82.0477 86.5603C82.507 87.0141 82.5623 87.7566 82.965 88.3856C83.6526 89.527 84.8592 91.0645 85.9486 91.8624L89.6208 94.4864C91.8586 95.8538 94.3833 96.653 96.5634 98.0217C97.8262 98.8205 99.0881 99.847 100.351 100.703C100.994 101.16 101.384 101.903 102.187 102.186V102.014C101.786 101.502 101.67 100.761 101.271 100.188L99.547 98.5355C97.8844 96.3117 95.8172 94.3711 93.5794 92.7759C91.7428 91.5211 87.7275 89.8106 86.9812 87.7017L86.8683 87.5738C88.1287 87.4463 89.6208 87.0023 90.8269 86.6602C92.7792 86.1488 94.5567 86.2613 96.5634 85.7484L99.3197 84.9497V84.4383C98.2866 83.4122 97.5408 82.043 96.4514 81.0745C93.5255 78.5653 90.3098 76.1124 86.9812 74.0597C85.2028 72.9197 82.9069 72.1767 81.0136 71.2092C80.3231 70.8666 79.177 70.6955 78.7758 70.1255C77.7403 68.873 77.168 67.2173 76.4222 65.7337L71.7173 55.8113C70.6847 53.587 70.0519 51.3628 68.7914 49.3102C62.88 39.615 56.452 33.742 46.582 27.9811C44.46 26.7834 41.9353 26.2683 39.2508 25.642L34.9477 25.4123C34.028 25.0134 33.1106 23.9292 32.3072 23.4155C29.0362 21.3623 20.6006 16.9148 18.1884 22.7766C16.6392 26.483 20.4848 30.1322 21.7903 32.0152C22.7677 33.3267 24.0281 34.8089 24.7186 36.292C25.1044 37.2609 25.2333 38.2884 25.6359 39.315C26.5528 41.8238 27.4144 44.6194 28.6195 46.9584C29.2627 48.1561 29.9381 49.4123 30.7416 50.4952C31.2009 51.1341 32.0048 51.4078 32.1759 52.4339C31.372 53.5753 31.3167 55.2844 30.8573 56.7122C28.7906 63.1566 29.5945 71.1403 32.5205 75.885C33.4402 77.31 35.6072 80.4478 38.5477 79.2492C41.13 78.2227 40.5539 74.9723 41.2997 72.1205C41.4731 71.437 41.3578 70.9805 41.7009 70.523V70.6509L44.0545 75.3839C45.8334 78.1781 48.9333 81.0872 51.5142 83.0273C52.8905 84.0539 53.9812 85.823 55.702 86.4492V86.2767H55.5891C55.2441 85.7653 54.727 85.5352 54.2681 85.1363C53.2355 84.1102 52.088 82.8548 51.2841 81.7148C48.8751 78.5217 46.7531 74.985 44.8584 71.3358C43.9392 69.5681 43.1353 67.6289 42.3919 65.8613C42.0445 65.1764 42.0445 64.1484 41.4722 63.8086C40.6102 65.0611 39.3502 66.1477 38.7159 67.6866C37.6252 70.1381 37.5122 73.1611 37.1109 76.298C36.8794 76.3552 36.982 76.298 36.8794 76.4255C35.0452 75.9708 34.4123 74.0864 33.7247 72.4912C32.0034 68.4422 31.7152 61.9411 33.2072 57.2644C33.6084 56.0667 35.332 52.3027 34.6439 51.1622C34.297 50.0784 33.1519 49.4522 32.5191 48.5958C31.7733 47.512 30.9722 46.1442 30.4552 44.9466C29.0789 41.7511 28.3908 38.2167 26.8973 35.0231C26.2069 33.54 25.0031 31.9997 24.0267 30.6323C22.9359 29.092 21.7336 28.0078 20.872 26.1839C20.5852 25.545 20.1839 24.5302 20.6428 23.8448C20.7562 23.3888 20.9873 23.2059 21.4444 23.1038C22.1897 22.4644 24.315 23.2748 25.0608 23.6147C27.1828 24.4711 28.9617 25.2689 30.7406 26.4652C31.5445 27.0352 32.4061 28.1194 33.4387 28.4058H34.6453C36.4819 28.8042 38.5462 28.5333 40.2656 29.0447C43.3078 30.0159 46.0612 31.44 48.5306 32.9813C56.047 37.7147 62.2462 44.4441 66.4336 52.4864C67.1217 53.798 67.4086 54.9956 68.0414 56.3644C69.248 59.16 70.74 62.0105 71.9423 64.7494C73.1489 67.4297 74.2959 70.1691 76.0172 72.3928C76.8787 73.5905 80.3203 74.2167 81.8691 74.8444C83.0175 75.3558 84.795 75.8161 85.8305 76.4423C87.78 77.64 89.7314 79.0088 91.5666 80.3203C92.4834 81.0028 95.3545 82.4292 95.5251 83.5669L95.5317 83.5359ZM37.0116 33.9783C36.2189 33.9713 35.4288 34.0671 34.6608 34.2633V34.3913H34.7737C35.2331 35.3039 36.037 35.9316 36.6103 36.7303L37.9312 39.4678L38.0447 39.3403C38.8481 38.7703 39.2508 37.8577 39.2508 36.4903C38.9062 36.0914 38.8495 35.6911 38.5627 35.2922C38.2181 34.7222 37.4723 34.4358 37.0116 33.9811V33.9783Z" fill="#3D3D3D"/>
</g>
</g>
<defs>
<clipPath id="clip0_5_205">
<rect width="120" height="120" fill="white"/>
</clipPath>
</defs>
</svg>
