<svg width="120" height="120" viewBox="0 0 120 120" fill="none" xmlns="http://www.w3.org/2000/svg">
<g clip-path="url(#clip0_34_8)">
<path d="M59.495 120C57.885 120 56.295 119.58 54.88 118.765L40.205 110.075C38.01 108.85 39.08 108.415 39.805 108.165C42.725 107.145 43.32 106.915 46.44 105.14C46.77 104.955 47.2 105.02 47.535 105.215L58.81 111.91C59.0211 112.019 59.2551 112.076 59.4925 112.076C59.7299 112.076 59.9639 112.019 60.175 111.91L104.145 86.5251C104.349 86.402 104.518 86.2282 104.636 86.0206C104.753 85.813 104.815 85.5786 104.815 85.3401V34.5951C104.816 34.3519 104.753 34.1126 104.634 33.9006C104.515 33.6886 104.343 33.511 104.135 33.3851L60.185 8.02507C59.9792 7.90566 59.7455 7.84276 59.5075 7.84276C59.2695 7.84276 59.0358 7.90566 58.83 8.02507L14.88 33.3851C14.6699 33.5075 14.4954 33.6826 14.3735 33.893C14.2516 34.1034 14.1867 34.3419 14.185 34.5851V85.3251C14.185 85.8101 14.45 86.2751 14.87 86.5051L26.91 93.4601C33.45 96.7301 37.445 92.8801 37.445 89.0051V38.9251C37.4423 38.7571 37.4734 38.5903 37.5366 38.4347C37.5998 38.2791 37.6937 38.1377 37.8127 38.0192C37.9317 37.9007 38.0734 37.8073 38.2293 37.7448C38.3852 37.6822 38.5521 37.6517 38.72 37.6551H44.29C44.985 37.6551 45.555 38.2051 45.555 38.9251V89.0251C45.555 97.7451 40.805 102.75 32.535 102.75C29.99 102.75 27.985 102.75 22.395 100L10.86 93.3501C9.45792 92.5313 8.29464 91.3596 7.48587 89.9517C6.6771 88.5438 6.25101 86.9487 6.25 85.3251V34.5851C6.25 31.2851 8.01 28.2001 10.86 26.5751L54.88 1.18007C56.2976 0.405464 57.8871 -0.000488281 59.5025 -0.000488281C61.1179 -0.000488281 62.7074 0.405464 64.125 1.18007L108.085 26.5801C110.925 28.2251 112.695 31.2951 112.695 34.5951V85.3401C112.691 86.9612 112.264 88.5532 111.455 89.9582C110.647 91.3633 109.485 92.5325 108.085 93.3501L64.125 118.745C62.7152 119.556 61.1163 119.98 59.49 119.975V120M73.07 85.0351C53.83 85.0351 49.8 76.2051 49.8 68.7951C49.8 68.0951 50.365 67.5301 51.07 67.5301H56.75C57.38 67.5301 57.905 67.9851 58.005 68.6051C58.865 74.3951 61.42 77.3151 73.055 77.3151C82.32 77.3151 86.26 75.2201 86.26 70.3051C86.26 67.4751 85.135 65.3751 70.74 63.9651C58.7 62.7751 51.26 60.1251 51.26 50.4951C51.26 41.6201 58.745 36.3401 71.28 36.3401C85.355 36.3401 92.335 41.2251 93.215 51.7251C93.2302 51.9018 93.2086 52.0797 93.1514 52.2476C93.0943 52.4154 93.0029 52.5696 92.883 52.7003C92.7631 52.831 92.6174 52.9354 92.4551 53.0068C92.2927 53.0782 92.1173 53.115 91.94 53.1151H86.225C85.9372 53.1147 85.6581 53.0157 85.4344 52.8347C85.2106 52.6537 85.0555 52.4015 84.995 52.1201C83.62 46.0351 80.295 44.0851 71.26 44.0851C61.145 44.0851 59.965 47.6101 59.965 50.2501C59.965 53.4501 61.35 54.3901 75 56.1951C88.515 57.9901 94.935 60.5201 94.935 70.0201C94.935 79.5951 86.94 85.0901 73.01 85.0901L73.07 85.0351Z" fill="white"/>
</g>
<defs>
<clipPath id="clip0_34_8">
<rect width="120" height="120" fill="white"/>
</clipPath>
</defs>
</svg>
