<svg width="120" height="62" viewBox="0 0 120 62" fill="none" xmlns="http://www.w3.org/2000/svg">
<path d="M35.05 22.1923H30.33L27.755 35.1964H31.945C34.725 35.1964 36.795 34.6807 38.155 33.6543C39.515 32.6231 40.43 30.9091 40.905 28.5028C41.365 26.1947 41.155 24.5643 40.285 23.6165C39.41 22.6687 37.67 22.1923 35.05 22.1923ZM60 0C26.865 0 0 13.8782 0 30.9975C0 48.1169 26.865 62 60 62C93.135 62 120 48.1169 120 30.9975C120 13.8782 93.135 0 60 0ZM43.7 36.591C42.395 37.8188 40.825 38.742 39.115 39.2969C37.435 39.8273 35.29 40.1023 32.69 40.1023H26.785L25.15 48.3575H18.26L24.41 17.2912H37.66C41.645 17.2912 44.55 18.3176 46.38 20.3753C48.21 22.428 48.76 25.296 48.03 28.9792C47.7504 30.4366 47.2356 31.8408 46.505 33.1387C45.79 34.391 44.855 35.545 43.7 36.591ZM63.82 40.1023L66.535 26.3568C66.85 24.7951 66.73 23.7245 66.195 23.1598C65.66 22.5901 64.515 22.3053 62.76 22.3053H57.3L53.78 40.1072H46.94L53.09 9.03604H59.925L58.29 17.2962H64.38C68.215 17.2962 70.855 17.9542 72.31 19.2654C73.765 20.5766 74.2 22.703 73.625 25.6447L70.765 40.1023H63.82ZM101.805 28.9792C101.53 30.4378 101.015 31.8427 100.28 33.1387C99.565 34.391 98.63 35.545 97.475 36.591C96.1693 37.815 94.6033 38.7392 92.89 39.2969C91.21 39.8273 89.065 40.1023 86.46 40.1023H80.56L78.925 48.3625H72.035L78.185 17.2962H91.43C95.415 17.2962 98.32 18.3225 100.15 20.3802C101.98 22.428 102.535 25.296 101.805 28.9792ZM88.83 22.1923H84.115L81.535 35.1964H85.725C88.51 35.1964 90.58 34.6807 91.935 33.6543C93.295 32.6231 94.21 30.9091 94.69 28.5028C95.15 26.1947 94.935 24.5643 94.065 23.6165C93.195 22.6687 91.445 22.1923 88.83 22.1923Z" fill="white"/>
</svg>
