<svg width="120" height="120" viewBox="0 0 120 120" fill="none" xmlns="http://www.w3.org/2000/svg">
<g clip-path="url(#clip0_5_178)">
<mask id="mask0_5_178" style="mask-type:luminance" maskUnits="userSpaceOnUse" x="0" y="0" width="120" height="120">
<path d="M0 0H120V120H0V0Z" fill="white"/>
</mask>
<g mask="url(#mask0_5_178)">
<path d="M59.57 0C29.1 0 31 13.28 31 13.28L31.035 27.04H60.105V31.17H19.5C19.5 31.17 0 28.945 0 59.845C0 90.745 17.015 89.645 17.015 89.645H27.165V75.31C27.165 75.31 26.62 58.21 43.915 58.21H72.745C72.745 58.21 88.945 58.47 88.945 42.47V16.01C88.945 16.01 91.405 0 59.57 0ZM43.54 9.25C46.43 9.25 48.77 11.6 48.77 14.51C48.77 17.415 46.43 19.765 43.54 19.765C40.645 19.765 38.31 17.415 38.31 14.51C38.31 11.6 40.645 9.25 43.54 9.25Z" fill="white"/>
<path d="M60.435 120C90.895 120 88.995 106.72 88.995 106.72L88.96 92.96H59.89V88.83H100.505C100.505 88.83 120.005 91.055 120.005 60.155C120.005 29.255 102.985 30.355 102.985 30.355H92.835V44.69C92.835 44.69 93.38 61.79 76.085 61.79H47.26C47.26 61.79 31.06 61.53 31.06 77.53V103.99C31.06 103.99 28.6 120 60.435 120ZM76.465 110.75C73.57 110.75 71.235 108.4 71.235 105.49C71.235 102.585 73.57 100.235 76.465 100.235C79.355 100.235 81.695 102.585 81.695 105.49C81.695 108.4 79.355 110.75 76.465 110.75Z" fill="white"/>
</g>
</g>
<defs>
<clipPath id="clip0_5_178">
<rect width="120" height="120" fill="white"/>
</clipPath>
</defs>
</svg>
